<svg xmlns="http://www.w3.org/2000/svg" width="64" height="64" viewBox="0 0 64 64" version="1.1"><path d="M 21.880 6.794 C 12.491 11.699, 7.860 22.875, 11.256 32.430 C 12.024 34.592, 14.644 38.728, 17.077 41.621 L 21.500 46.880 32 46.880 L 42.500 46.880 46.923 41.621 C 52.311 35.214, 54.278 30.041, 53.718 23.756 C 52.767 13.095, 42.769 4, 32 4 C 28.719 4, 25.557 4.873, 21.880 6.794 M 27.881 9.268 C 26.517 11.114, 26.014 11.256, 24.697 10.164 C 22.314 8.186, 18.123 11.195, 18.744 14.439 C 19.106 16.337, 18.729 16.904, 16.929 17.167 C 14.363 17.543, 11.780 23.093, 13.850 23.783 C 15.343 24.281, 15.343 27.719, 13.850 28.217 C 11.780 28.907, 14.363 34.457, 16.929 34.833 C 18.729 35.096, 19.106 35.663, 18.744 37.561 C 18.126 40.790, 22.314 43.814, 24.682 41.849 C 25.976 40.775, 26.523 40.927, 28.025 42.782 C 30.319 45.616, 33.681 45.616, 35.975 42.782 C 37.477 40.927, 38.024 40.775, 39.318 41.849 C 41.686 43.814, 45.874 40.790, 45.256 37.561 C 44.894 35.663, 45.271 35.096, 47.071 34.833 C 49.637 34.457, 52.220 28.907, 50.150 28.217 C 49.517 28.006, 49 27.008, 49 26 C 49 24.992, 49.517 23.994, 50.150 23.783 C 52.220 23.093, 49.637 17.543, 47.071 17.167 C 45.271 16.904, 44.894 16.337, 45.256 14.439 C 45.874 11.210, 41.686 8.186, 39.318 10.151 C 38.024 11.225, 37.477 11.073, 35.975 9.218 C 33.699 6.407, 29.976 6.430, 27.881 9.268 M 28 16.979 C 27.175 17.500, 26.480 18.506, 26.455 19.214 C 26.430 19.921, 25.880 20.392, 25.234 20.260 C 24.588 20.128, 23.550 20.973, 22.927 22.137 C 22.045 23.784, 22.094 24.448, 23.147 25.127 C 24.279 25.857, 24.280 26.142, 23.156 26.867 C 22.041 27.587, 22.070 28.235, 23.331 30.673 C 26.911 37.597, 37.089 37.597, 40.669 30.673 C 41.930 28.235, 41.959 27.587, 40.844 26.867 C 39.720 26.142, 39.721 25.857, 40.853 25.127 C 41.906 24.448, 41.955 23.784, 41.073 22.137 C 40.450 20.973, 39.391 20.128, 38.720 20.260 C 38.049 20.392, 37.608 19.951, 37.740 19.280 C 37.872 18.609, 37.027 17.550, 35.863 16.927 C 34.217 16.046, 33.534 16.095, 32.797 17.147 C 32.058 18.200, 31.735 18.223, 31.341 17.250 C 30.738 15.764, 30.014 15.705, 28 16.979 M 31.158 22.337 C 29.421 24.129, 28 26.538, 28 27.691 C 28 31.685, 33.643 31.641, 34.448 27.640 C 36.259 18.644, 35.665 17.687, 31.158 22.337 M 31.183 25.217 C 29.773 26.627, 29.616 29, 30.933 29 C 31.915 29, 33.474 25.141, 32.775 24.441 C 32.550 24.217, 31.834 24.566, 31.183 25.217 M 23 51 C 23 52.852, 23.667 53, 32 53 C 40.333 53, 41 52.852, 41 51 C 41 49.148, 40.333 49, 32 49 C 23.667 49, 23 49.148, 23 51 M 23 55.929 C 23 58.472, 26.378 60, 32 60 C 37.622 60, 41 58.472, 41 55.929 C 41 55.418, 36.950 55, 32 55 C 27.050 55, 23 55.418, 23 55.929" stroke="none" fill="#f1bf54" fill-rule="evenodd"/><path d="M 21.271 4.043 C 16.429 6.499, 11.379 11.850, 9.375 16.645 C 7.556 20.998, 7.626 30.169, 9.512 34.684 C 10.344 36.674, 12.831 40.263, 15.040 42.659 C 19.584 47.588, 21 50.639, 21 55.494 C 21 60.830, 22.978 62, 32 62 C 41.022 62, 43 60.830, 43 55.494 C 43 50.607, 44.320 47.832, 49.329 42.193 C 54.835 35.993, 56.338 31.644, 55.814 23.422 C 55.335 15.892, 52.051 10.388, 45.141 5.532 C 41.410 2.909, 39.819 2.467, 33.169 2.202 C 26.902 1.953, 24.727 2.289, 21.271 4.043 M 21.880 6.794 C 12.491 11.699, 7.860 22.875, 11.256 32.430 C 12.024 34.592, 14.644 38.728, 17.077 41.621 L 21.500 46.880 32 46.880 L 42.500 46.880 46.923 41.621 C 52.311 35.214, 54.278 30.041, 53.718 23.756 C 52.767 13.095, 42.769 4, 32 4 C 28.719 4, 25.557 4.873, 21.880 6.794 M 27.881 9.268 C 26.517 11.114, 26.014 11.256, 24.697 10.164 C 22.314 8.186, 18.123 11.195, 18.744 14.439 C 19.106 16.337, 18.729 16.904, 16.929 17.167 C 14.363 17.543, 11.780 23.093, 13.850 23.783 C 15.343 24.281, 15.343 27.719, 13.850 28.217 C 11.780 28.907, 14.363 34.457, 16.929 34.833 C 18.729 35.096, 19.106 35.663, 18.744 37.561 C 18.126 40.790, 22.314 43.814, 24.682 41.849 C 25.976 40.775, 26.523 40.927, 28.025 42.782 C 30.319 45.616, 33.681 45.616, 35.975 42.782 C 37.477 40.927, 38.024 40.775, 39.318 41.849 C 41.686 43.814, 45.874 40.790, 45.256 37.561 C 44.894 35.663, 45.271 35.096, 47.071 34.833 C 49.637 34.457, 52.220 28.907, 50.150 28.217 C 49.517 28.006, 49 27.008, 49 26 C 49 24.992, 49.517 23.994, 50.150 23.783 C 52.220 23.093, 49.637 17.543, 47.071 17.167 C 45.271 16.904, 44.894 16.337, 45.256 14.439 C 45.874 11.210, 41.686 8.186, 39.318 10.151 C 38.024 11.225, 37.477 11.073, 35.975 9.218 C 33.699 6.407, 29.976 6.430, 27.881 9.268 M 28 16.979 C 27.175 17.500, 26.480 18.506, 26.455 19.214 C 26.430 19.921, 25.880 20.392, 25.234 20.260 C 24.588 20.128, 23.550 20.973, 22.927 22.137 C 22.045 23.784, 22.094 24.448, 23.147 25.127 C 24.279 25.857, 24.280 26.142, 23.156 26.867 C 22.041 27.587, 22.070 28.235, 23.331 30.673 C 26.911 37.597, 37.089 37.597, 40.669 30.673 C 41.930 28.235, 41.959 27.587, 40.844 26.867 C 39.720 26.142, 39.721 25.857, 40.853 25.127 C 41.906 24.448, 41.955 23.784, 41.073 22.137 C 40.450 20.973, 39.391 20.128, 38.720 20.260 C 38.049 20.392, 37.608 19.951, 37.740 19.280 C 37.872 18.609, 37.027 17.550, 35.863 16.927 C 34.217 16.046, 33.534 16.095, 32.797 17.147 C 32.058 18.200, 31.735 18.223, 31.341 17.250 C 30.738 15.764, 30.014 15.705, 28 16.979 M 31.158 22.337 C 29.421 24.129, 28 26.538, 28 27.691 C 28 31.685, 33.643 31.641, 34.448 27.640 C 36.259 18.644, 35.665 17.687, 31.158 22.337 M 31.183 25.217 C 29.773 26.627, 29.616 29, 30.933 29 C 31.915 29, 33.474 25.141, 32.775 24.441 C 32.550 24.217, 31.834 24.566, 31.183 25.217 M 23 51 C 23 52.852, 23.667 53, 32 53 C 40.333 53, 41 52.852, 41 51 C 41 49.148, 40.333 49, 32 49 C 23.667 49, 23 49.148, 23 51 M 23 55.929 C 23 58.472, 26.378 60, 32 60 C 37.622 60, 41 58.472, 41 55.929 C 41 55.418, 36.950 55, 32 55 C 27.050 55, 23 55.418, 23 55.929" stroke="none" fill="#1e1911" fill-rule="evenodd"/></svg>